<svg width="468" height="516" viewBox="0 0 468 516" fill="none" xmlns="http://www.w3.org/2000/svg">
<path d="M439.448 107.23C483.264 169.781 469.273 263.545 438.537 340.069C407.93 416.49 360.711 475.617 298.843 501.011C237.108 526.4 160.852 518.018 102.519 487.287C44.052 456.546 3.50254 403.487 0.235238 352.942C-3.16625 302.555 30.8428 254.8 69.0352 193.463C107.228 132.126 149.866 57.1836 221.939 35.3219C294.134 13.4602 395.631 44.8143 439.448 107.23Z" fill="#F2F2F2"/>
<path fill-rule="evenodd" clip-rule="evenodd" d="M203.187 108.98L201.437 100.772C200.942 98.4766 199.487 96.4574 197.392 95.1572C195.296 93.8571 192.73 93.3821 190.258 93.8366L155.058 100.338C152.587 100.797 150.413 102.148 149.013 104.094C147.612 106.041 147.101 108.423 147.59 110.719L173.262 230.387C173.505 231.524 173.988 232.605 174.681 233.569C175.375 234.533 176.266 235.361 177.304 236.005C178.342 236.649 179.507 237.097 180.731 237.323C181.956 237.549 183.216 237.548 184.441 237.322L207.639 233.031C210.713 232.299 214.757 231.194 214.757 231.194L203.187 108.98Z" fill="#6BD5E1"/>
<path fill-rule="evenodd" clip-rule="evenodd" d="M298.003 488.745L300.832 496.991L324.456 491.952L322.455 482.086L298.003 488.745Z" fill="#E49D75"/>
<path fill-rule="evenodd" clip-rule="evenodd" d="M150.951 416.983L142.287 420.825L153.991 440.167L164.166 434.012L150.951 416.983Z" fill="#E49D75"/>
<path fill-rule="evenodd" clip-rule="evenodd" d="M204.546 214.425C204.546 214.425 228.287 330.42 235.142 346.083C226.046 352.942 150.484 417.13 150.484 417.13L163.32 434.608L272.716 376.446L250.224 202.609L204.546 214.425Z" fill="#56CAD8"/>
<path fill-rule="evenodd" clip-rule="evenodd" d="M219.92 218.803C225.498 231.736 297.938 488.924 297.938 488.924L323.289 482.715L301.002 199.661C301.002 199.661 214.348 205.87 219.92 218.803Z" fill="#6BD5E1"/>
<path fill-rule="evenodd" clip-rule="evenodd" d="M232.832 86.2945C288.808 74.9655 308.645 186.723 304.852 200.647C301.06 214.571 212.557 228.279 206.069 219.849C199.581 211.418 173.641 98.2738 232.832 86.2945Z" fill="#FF9045"/>
<path fill-rule="evenodd" clip-rule="evenodd" d="M217.744 58.316C221.431 67.1419 222.826 80.3836 223.724 93.1646C228.672 97.1631 243.311 95.8303 245.358 93.4681C243.719 89.4371 244.127 76.9594 245.032 73.0801C245.936 69.2008 215.684 53.391 217.744 58.316Z" fill="#D18C65"/>
<path fill-rule="evenodd" clip-rule="evenodd" d="M308.353 76.6235L326.096 13.2598L334.03 15.1723L316.288 78.5631L308.353 76.6235Z" fill="#DFDFDF"/>
<path d="M313.178 70.6531L317.723 71.7367" stroke="white" stroke-width="1.01" stroke-linecap="square" stroke-linejoin="round"/>
<path d="M315.512 62.3198L320.057 63.4034" stroke="white" stroke-width="1.01" stroke-linecap="square" stroke-linejoin="round"/>
<path d="M317.84 53.9872L322.391 55.0708" stroke="white" stroke-width="1.01" stroke-linecap="square" stroke-linejoin="round"/>
<path d="M320.174 45.6543L324.724 46.7379" stroke="white" stroke-width="1.01" stroke-linecap="square" stroke-linejoin="round"/>
<path d="M322.507 37.3212L327.052 38.4048" stroke="white" stroke-width="1.01" stroke-linecap="square" stroke-linejoin="round"/>
<path d="M324.841 28.9884L329.386 30.072" stroke="white" stroke-width="1.01" stroke-linecap="square" stroke-linejoin="round"/>
<path d="M327.175 20.6554L331.72 21.739" stroke="white" stroke-width="1.01" stroke-linecap="square" stroke-linejoin="round"/>
<path fill-rule="evenodd" clip-rule="evenodd" d="M334.859 52.5946C339.597 51.0451 342.817 55.114 344.112 58.7332C346.19 64.5522 344.813 69.8618 342.817 70.6529C341.708 71.1108 340.465 71.2075 339.29 70.9272C338.114 70.6469 337.075 70.0061 336.341 69.1087C336.201 70.6962 335.956 72.0182 332.84 73.2752C328.173 75.1552 323.015 69.4826 321.796 66.5569C320.174 62.7101 320.938 56.967 324.421 55.58C327.292 54.4368 329.252 55.2603 330.156 56.3114C331.434 54.4422 332.869 53.2448 334.859 52.5946Z" fill="#56CAD8"/>
<path fill-rule="evenodd" clip-rule="evenodd" d="M331.843 40.8915C338.698 41.4333 333.546 51.5054 330.314 53.6509C328.027 51.8576 325.209 40.3659 331.843 40.8915Z" fill="#FD8369"/>
<path fill-rule="evenodd" clip-rule="evenodd" d="M208.158 159.774C207.668 169.347 204.92 195.018 225.609 199.461C245.288 203.692 309.975 162.97 321.591 160.543C333.208 158.116 333.4 161.952 341.831 159.015C358.453 153.218 355.25 146.857 353.938 140.328C346.901 142.452 246.846 165.251 243.468 166.075C242.026 163.103 241.246 159.89 241.175 156.631C241.175 156.631 208.648 150.2 208.158 159.774Z" fill="#E49D75"/>
<path fill-rule="evenodd" clip-rule="evenodd" d="M220.673 106.85C248.538 105.593 250.545 158.69 246.449 162.174C242.354 165.658 203.624 168.199 200.707 164.238C197.79 160.278 196.092 107.961 220.673 106.85Z" fill="#FFB380"/>
<path fill-rule="evenodd" clip-rule="evenodd" d="M280.278 137.966C273.685 139.505 269.466 144.901 270.855 150.016C272.244 155.131 278.708 158.051 285.307 156.485L357.176 139.689L352.158 121.171L280.278 137.966Z" fill="#FD8369"/>
<path fill-rule="evenodd" clip-rule="evenodd" d="M279.274 124.681L381.027 100.793L384.528 113.677L282.775 137.56L279.274 124.681Z" fill="#DFDFDF"/>
<path fill-rule="evenodd" clip-rule="evenodd" d="M276.678 102.614L350.326 85.3248L356.196 106.883L282.541 124.172L276.678 102.614Z" fill="#56CAD8"/>
<path fill-rule="evenodd" clip-rule="evenodd" d="M251.8 94.812L353.57 70.924L357.071 83.8242L255.318 107.707L251.8 94.812Z" fill="#FD8369"/>
<path d="M281.911 139.852L285.558 153.505" stroke="#6BD5E1" stroke-width="1.36" stroke-linecap="square" stroke-linejoin="round"/>
<path fill-rule="evenodd" clip-rule="evenodd" d="M284.566 108.969L305.348 104.093L307.005 110.177L286.223 115.054L284.566 108.969Z" fill="#DFDFDF"/>
<path d="M259.11 99.8505L301.06 89.876" stroke="#FFD98E" stroke-width="2.42" stroke-linecap="round" stroke-linejoin="round"/>
<path fill-rule="evenodd" clip-rule="evenodd" d="M123.377 429.661L156.715 486.979L166.115 482.373L155.642 440.113L142.363 420.651L123.377 429.661Z" fill="#2B2B2B"/>
<path fill-rule="evenodd" clip-rule="evenodd" d="M303.767 515.987L372.835 504.609L371.085 494.857L324.573 490.798L300.517 496.395L303.767 515.987Z" fill="#2B2B2B"/>
<path fill-rule="evenodd" clip-rule="evenodd" d="M258.521 18.0277C255.89 4.72101 241.805 -1.00041 229.36 1.49729C207.72 5.83171 197.271 16.6677 184.347 18.6887C164.744 21.7336 146.488 14.896 125.91 19.9348C98.0208 26.7615 93.8725 45.2532 97.9041 61.8432C104.62 89.2854 130.04 95.4349 149.102 92.845C176.874 89.0524 177.346 70.8696 194.762 68.0901C202.901 66.7952 208.181 68.4531 216.46 67.0065C224.739 65.5599 238.176 55.5908 242.132 51.7927C246.088 47.9947 260.085 25.9271 258.521 18.0277Z" fill="black"/>
<path fill-rule="evenodd" clip-rule="evenodd" d="M214.354 47.5668C211.437 31.5078 219.517 17.2638 232.406 15.7522C245.294 14.2406 258.118 26.0356 261.036 42.1054C263.953 58.1753 255.872 72.4084 242.984 73.92C230.095 75.4316 217.271 63.6258 214.354 47.5668Z" fill="#E49D75"/>
<path fill-rule="evenodd" clip-rule="evenodd" d="M253.217 22.0588C255.347 32.5914 222.33 49.5552 211.944 51.6845C201.559 53.8138 197.603 33.9242 197.603 33.9242C197.603 33.9242 232.733 -4.28904 253.217 22.0588Z" fill="black"/>
<path fill-rule="evenodd" clip-rule="evenodd" d="M210.912 55.9647C210.911 54.8252 211.274 53.7109 211.955 52.763C212.636 51.815 213.604 51.076 214.738 50.6394C215.871 50.2028 217.119 50.0883 218.322 50.3104C219.526 50.5324 220.632 51.081 221.499 51.8868C222.367 52.6926 222.958 53.7193 223.197 54.837C223.436 55.9547 223.313 57.1132 222.843 58.1658C222.372 59.2184 221.577 60.1178 220.556 60.7503C219.535 61.3827 218.335 61.7197 217.108 61.7186C215.465 61.7186 213.889 61.1124 212.727 60.0334C211.565 58.9543 210.912 57.4907 210.912 55.9647Z" fill="#E49D75"/>
<path d="M199.54 104.033C202.534 101.719 206.078 100.099 209.879 99.3087" stroke="#6BD5E1" stroke-width="4" stroke-linecap="round" stroke-linejoin="round"/>
<path d="M209.902 99.3089C228.188 95.5813 247.751 112.583 253.591 137.289C255.925 147.08 255.72 156.61 253.515 164.78" stroke="#6BD5E1" stroke-width="4" stroke-linecap="round" stroke-linejoin="round"/>
</svg>
