<svg width="303" height="312" viewBox="0 0 303 312" fill="none" xmlns="http://www.w3.org/2000/svg">
<path d="M302.5 134C302.5 171.667 289.5 203.5 263.5 229.5C237.833 255.167 206.167 268 168.5 268C131.167 268 99.5 255 73.5 229C47.5 203 34.5 171.333 34.5 134V0.499851H102L102.5 134C102.5 152.333 108.833 168 121.5 181C134.5 194 150.167 200.5 168.5 200.5C186.833 200.5 202.5 194 215.5 181C228.5 168 235 152.333 235 134V0.499851H302.5V134Z" fill="#EC823A"/>
<path d="M142.265 84.4921C144.901 84.4921 149.954 83.4607 154.029 81.618C159.67 78.6744 164.031 73.6811 166.096 67.6469C164.006 63.4443 162.829 58.7257 162.829 53.74C162.829 51.3254 163.113 48.9761 163.635 46.7145C159.198 39.6913 151.289 35.0127 142.266 35.0127C128.378 35.0127 117.12 46.089 117.12 59.7524C117.119 73.4157 128.377 84.4921 142.265 84.4921Z" fill="#EC823A"/>
<path d="M195.098 78.4794C208.986 78.4794 220.244 67.403 220.244 53.7397C220.244 40.0763 208.986 29 195.098 29C181.21 29 169.952 40.0763 169.952 53.7397C169.952 67.403 181.21 78.4794 195.098 78.4794Z" fill="#EC823A"/>
<path d="M90.6434 109.999C90.5726 110.086 90.3941 110.549 90.6434 109.999V109.999Z" fill="#EC823A"/>
<path d="M270.612 114.472C270.532 99.0059 257.441 86.3651 241.404 86.3651C179.456 86.168 233.806 86.2569 179.816 86.3651V86.394C175.406 86.4022 177.102 86.3993 172.692 86.4075C164.438 86.614 156.265 87.9172 148.365 90.3148L131.343 95.4811L90.9543 69.5947C85.2491 65.9387 77.5287 67.5972 73.9448 73.4266C70.5534 78.943 72.4144 86.2057 77.976 89.7699L122.862 118.539C125.976 120.535 129.725 120.956 133.062 119.944L155.518 113.129C167.485 109.586 176.657 110.493 176.657 110.493V110.548V110.837V227.497C176.657 235.408 171.775 255.854 179.816 255.854C187.857 255.854 205.692 255.258 205.692 247.347V200.761H211.979V241.675C211.979 249.586 214.593 247.347 222.634 247.347C230.675 247.347 236.812 243.915 236.812 236.004C236.812 236.004 241.107 182.469 241.107 173.19L258.505 173.153C264.728 173.14 269.996 168.483 270.555 162.266H270.612V161.823C270.7 114.241 271.079 146.63 270.612 114.472ZM246.252 149.305L241.107 149.316V110.658C243.948 110.658 246.252 112.925 246.252 115.72V149.305Z" fill="#EC823A"/>
<path d="M137.14 126.04C136.63 126.053 127.947 130.162 118.973 124.411L91.9017 107.06C91.1727 108.795 90.8085 109.629 90.641 109.999C90.8934 109.689 89.7261 114.303 61.7411 189.606C59.4399 195.798 62.677 202.652 68.97 204.916C75.2611 207.179 82.2299 203.997 84.5317 197.804C91.4017 179.318 95.967 167.024 99.3183 157.939L88.8494 221.596C88.1335 225.658 91.33 229.367 95.4904 229.367H104.345L106.371 244.511C106.371 271.133 132.217 250.373 133.464 229.368H139.75L137.14 250.183C137.14 258.094 143.701 250.183 151.742 250.183C159.783 250.183 169.076 249.587 169.076 241.676V115.109C169.076 115.109 166.694 115.44 163.084 116.906L137.14 126.04Z" fill="#EC823A"/>
</svg>
