<svg width="118" height="66" viewBox="0 0 118 66" fill="none" xmlns="http://www.w3.org/2000/svg">
<path d="M22.28 21.5476C22.3067 24.5342 21.28 27.0676 19.2 29.1476C17.12 31.2009 14.5867 32.2409 11.6 32.2676L2.76 32.3076V0.627578H8.96C11.2267 0.627578 13.1333 1.41424 14.68 2.98758C16.2533 4.53424 17.0533 6.44091 17.08 8.70758C17.08 9.88091 16.8533 10.9876 16.4 12.0276C18.1867 12.9609 19.6 14.2809 20.64 15.9876C21.7067 17.6676 22.2533 19.5209 22.28 21.5476ZM11.68 8.74758C11.6533 8.00091 11.3733 7.36091 10.84 6.82758C10.3333 6.29424 9.70667 6.02758 8.96 6.02758H8.2V11.4276L9 11.3876C9.77333 11.3609 10.4133 11.1076 10.92 10.6276C11.4533 10.1476 11.7067 9.52091 11.68 8.74758ZM16.88 21.5876C16.8533 20.0942 16.3333 18.8409 15.32 17.8276C14.3067 16.7876 13.0533 16.2676 11.56 16.2676H8.16V26.8676H11.6C13.0667 26.8676 14.32 26.3609 15.36 25.3476C16.4 24.3076 16.9067 23.0542 16.88 21.5876ZM50.7856 32.2676H45.0656L43.9056 29.1476C41.7723 31.6542 39.0523 32.9076 35.7456 32.9076C32.759 32.9076 30.2256 31.8676 28.1456 29.7876C26.0923 27.7076 25.0656 25.1876 25.0656 22.2276C25.0656 19.9609 25.7056 17.9209 26.9856 16.1076C28.2656 14.2676 29.9723 12.9609 32.1056 12.1876C33.359 11.7342 34.5856 11.5076 35.7856 11.5076C38.0523 11.5076 40.0923 12.1609 41.9056 13.4676C43.7456 14.7476 45.0523 16.4542 45.8256 18.5876L50.7856 32.2676ZM41.0656 22.2276C41.0656 20.3609 40.3056 18.9076 38.7856 17.8676C37.9056 17.2542 36.8923 16.9476 35.7456 16.9476C33.879 16.9476 32.439 17.6942 31.4256 19.1876C30.7856 20.1209 30.4656 21.1342 30.4656 22.2276C30.4656 24.0676 31.2256 25.5076 32.7456 26.5476C33.679 27.1876 34.679 27.5076 35.7456 27.5076C37.2123 27.5076 38.4656 27.0009 39.5056 25.9876C40.5456 24.9476 41.0656 23.6942 41.0656 22.2276ZM75.0203 32.2676H69.6203L69.5803 22.1476C69.5803 20.7076 69.0603 19.4676 68.0203 18.4276C66.9803 17.3876 65.7403 16.8676 64.3003 16.8676C62.8336 16.8676 61.5803 17.3876 60.5403 18.4276C59.5003 19.4409 58.9803 20.6809 58.9803 22.1476V32.2676H53.5803V22.1476C53.5803 19.1609 54.6203 16.6409 56.7003 14.5876C58.7803 12.5076 61.3136 11.4676 64.3003 11.4676C67.287 11.4676 69.8203 12.5076 71.9003 14.5876C73.9803 16.6409 75.0203 19.1609 75.0203 22.1476V32.2676ZM88.5191 32.2676C85.5324 32.2676 82.9991 31.2409 80.9191 29.1876C78.8391 27.1076 77.7991 24.5742 77.7991 21.5876V0.587576H83.1991V11.5076H88.5191V16.1076H83.1991V21.5876C83.1991 23.0542 83.7191 24.3076 84.7591 25.3476C85.7991 26.3609 87.0524 26.8676 88.5191 26.8676V32.2676ZM112.677 22.1876C112.677 25.2009 111.637 27.7476 109.557 29.8276C107.503 31.8809 104.97 32.9076 101.957 32.9076C98.9699 32.9076 96.4366 31.8676 94.3566 29.7876C92.2766 27.7076 91.2366 25.1742 91.2366 22.1876V11.5076H96.6366L96.6766 22.1876C96.6766 23.6542 97.1832 24.9076 98.1966 25.9476C99.2366 26.9876 100.49 27.5076 101.957 27.5076C103.423 27.5076 104.677 26.9876 105.717 25.9476C106.757 24.9076 107.277 23.6542 107.277 22.1876V11.5076H112.677V22.1876ZM22.44 50.3876C22.4933 52.2009 22.12 53.7742 21.32 55.1076C19.5333 58.0409 16.4133 59.5876 11.96 59.7476C9.93333 59.8276 7.70667 59.3342 5.28 58.2676L5.36 52.2276C5.76 52.5476 6.28 52.9209 6.92 53.3476C8.06667 54.1209 9.36 54.5076 10.8 54.5076C14.6133 54.5076 16.52 53.1476 16.52 50.4276V50.3476C16.52 49.0942 15.8267 48.0676 14.44 47.2676C13.6933 46.8409 12.3067 46.3342 10.28 45.7476C9.48 45.5076 8.61333 45.2142 7.68 44.8676C4.4 43.0276 2.76 40.3609 2.76 36.8676V36.6276C2.76 35.0276 3.2 33.5342 4.08 32.1476C4.96 30.7342 6.12 29.6409 7.56 28.8676C9.02667 28.0676 10.6 27.6409 12.28 27.5876C14.5467 27.5342 16.68 27.9609 18.68 28.8676V34.5876C17.2133 33.3076 15.28 32.6676 12.88 32.6676C12 32.6676 11.1867 32.8942 10.44 33.3476C9.29333 34.0409 8.72 35.0542 8.72 36.3876C8.72 38.2009 10.0533 39.5076 12.72 40.3076C13.2 40.4676 14.1467 40.7609 15.56 41.1876C17.96 41.9076 19.68 42.9876 20.72 44.4276C21.7867 45.8676 22.36 47.8542 22.44 50.3876ZM31.0619 33.9076C31.0619 34.8142 30.7552 35.5876 30.1419 36.2276C29.5285 36.8409 28.7685 37.1476 27.8619 37.1476C26.9552 37.1476 26.1819 36.8409 25.5419 36.2276C24.9285 35.5876 24.6219 34.8142 24.6219 33.9076C24.6219 33.0009 24.9285 32.2409 25.5419 31.6276C26.1819 31.0142 26.9552 30.7076 27.8619 30.7076C28.7419 30.7076 29.4885 31.0276 30.1019 31.6676C30.7419 32.2809 31.0619 33.0276 31.0619 33.9076ZM30.5819 59.2676H25.1819V38.5076H30.5819V59.2676ZM49.5859 53.1476C49.5859 54.4276 49.1593 55.5876 48.3059 56.6276C46.5993 58.7076 44.1726 59.7076 41.0259 59.6276C39.7726 59.6009 38.3993 59.3209 36.9059 58.7876C35.4393 58.2542 34.2393 57.5876 33.3059 56.7876L36.3059 52.9076C37.7459 54.2676 39.2793 54.9476 40.9059 54.9476H41.0259C41.6926 54.9476 42.2926 54.8276 42.8259 54.5876C43.5193 54.2676 43.8659 53.8142 43.8659 53.2276V53.0676C43.7859 52.4542 43.3726 52.0142 42.6259 51.7476C42.3326 51.6942 41.7059 51.5742 40.7459 51.3876C39.5459 51.1476 38.5326 50.8542 37.7059 50.5076C35.2793 49.4676 34.0659 47.6409 34.0659 45.0276C34.0659 42.5209 35.3059 40.6409 37.7859 39.3876C38.8793 38.8276 40.0659 38.5342 41.3459 38.5076C42.6793 38.4809 44.0659 38.7076 45.5059 39.1876C47.1593 39.7476 48.3326 40.4809 49.0259 41.3876L45.4259 44.6276C44.4926 43.6942 43.4793 43.2276 42.3859 43.2276C40.6793 43.2276 39.8259 43.7876 39.8259 44.9076V44.9876C39.8259 45.5209 40.5193 45.9742 41.9059 46.3476C42.0126 46.3742 42.8926 46.5476 44.5459 46.8676C47.9059 47.5076 49.5859 49.5609 49.5859 53.0276V53.1476ZM89.0094 49.1876C89.0094 52.2009 87.9694 54.7476 85.8894 56.8276C83.836 58.8809 81.3027 59.9076 78.2894 59.9076C75.3294 59.9076 72.796 58.8409 70.6894 56.7076C68.5827 58.8409 66.0494 59.9076 63.0894 59.9076C60.076 59.9076 57.5294 58.8809 55.4494 56.8276C53.396 54.7476 52.3694 52.2009 52.3694 49.1876V38.5076H57.7694V49.1876C57.7694 50.6542 58.2894 51.9076 59.3294 52.9476C60.3694 53.9876 61.6227 54.5076 63.0894 54.5076C64.556 54.5076 65.796 53.9876 66.8094 52.9476C67.8494 51.9076 68.3694 50.6542 68.3694 49.1876L68.4094 38.5076H73.8094V51.9476H73.7694C74.8094 53.6542 76.316 54.5076 78.2894 54.5076C79.756 54.5076 80.996 53.9876 82.0094 52.9476C83.0494 51.9076 83.5694 50.6542 83.5694 49.1876L83.6094 38.5076H89.0094V49.1876ZM117.543 59.2676H111.823L110.663 56.1476C108.53 58.6542 105.81 59.9076 102.503 59.9076C99.5168 59.9076 96.9834 58.8676 94.9034 56.7876C92.8501 54.7076 91.8234 52.1876 91.8234 49.2276C91.8234 46.9609 92.4634 44.9209 93.7434 43.1076C95.0234 41.2676 96.7301 39.9609 98.8634 39.1876C100.117 38.7342 101.343 38.5076 102.543 38.5076C104.81 38.5076 106.85 39.1609 108.663 40.4676C110.503 41.7476 111.81 43.4542 112.583 45.5876L117.543 59.2676ZM107.823 49.2276C107.823 47.3609 107.063 45.9076 105.543 44.8676C104.663 44.2542 103.65 43.9476 102.503 43.9476C100.637 43.9476 99.1968 44.6942 98.1834 46.1876C97.5434 47.1209 97.2234 48.1342 97.2234 49.2276C97.2234 51.0676 97.9834 52.5076 99.5034 53.5476C100.437 54.1876 101.437 54.5076 102.503 54.5076C103.97 54.5076 105.223 54.0009 106.263 52.9876C107.303 51.9476 107.823 50.6942 107.823 49.2276Z" fill="#FF9045"/>
<path d="M99.5836 8.55835C99.7972 8.55835 100.207 8.49222 100.537 8.37407C100.994 8.18533 101.347 7.86515 101.514 7.47824C101.345 7.20877 101.25 6.90622 101.25 6.58653C101.25 6.43171 101.273 6.28107 101.315 6.13606C100.955 5.68573 100.315 5.38574 99.5837 5.38574C98.4586 5.38574 97.5465 6.09596 97.5465 6.97205C97.5464 7.84814 98.4585 8.55835 99.5836 8.55835V8.55835Z" fill="#FF9045"/>
<path d="M103.864 8.17261C104.989 8.17261 105.901 7.4624 105.901 6.58631C105.901 5.71021 104.989 5 103.864 5C102.739 5 101.827 5.71021 101.827 6.58631C101.827 7.4624 102.739 8.17261 103.864 8.17261Z" fill="#FF9045"/>
<path d="M95.4007 10.1936C95.3954 10.1994 95.382 10.2302 95.4007 10.1936V10.1936Z" fill="#FF9045"/>
<path d="M109.981 10.4804C109.975 9.48872 108.915 8.67819 107.615 8.67819C102.597 8.66555 107 8.67125 102.626 8.67819V8.68004C102.268 8.68057 102.406 8.68038 102.049 8.68091C101.38 8.69415 100.718 8.77771 100.078 8.93144L98.6987 9.26271L95.4267 7.60287C94.9645 7.36845 94.3391 7.4748 94.0487 7.84858C93.774 8.20229 93.9247 8.66797 94.3753 8.89651L98.0117 10.7412C98.264 10.8692 98.5676 10.8962 98.838 10.8313L100.657 10.3943C101.627 10.1671 102.37 10.2253 102.37 10.2253V10.2288V10.2473V17.7275C102.37 18.2348 101.974 19.5458 102.626 19.5458C103.277 19.5458 104.722 19.5076 104.722 19.0003V16.0132H105.231V18.6367C105.231 19.1439 105.443 19.0003 106.095 19.0003C106.746 19.0003 107.243 18.7803 107.243 18.273C107.243 18.273 107.591 14.8404 107.591 14.2454L109.001 14.243C109.505 14.2422 109.932 13.9436 109.977 13.5449H109.981V13.5166C109.989 10.4656 110.019 12.5423 109.981 10.4804ZM108.008 12.7139L107.591 12.7146V10.2359C107.821 10.2359 108.008 10.3812 108.008 10.5605V12.7139Z" fill="#FF9045"/>
<path d="M99.1684 11.2224C99.1271 11.2232 98.4236 11.4867 97.6966 11.1179L95.5035 10.0054C95.4444 10.1166 95.4149 10.1701 95.4013 10.1938C95.4218 10.1739 95.3272 10.4698 93.06 15.2982C92.8736 15.6952 93.1359 16.1347 93.6457 16.2799C94.1554 16.425 94.7199 16.221 94.9064 15.8239C95.463 14.6386 95.8328 13.8502 96.1043 13.2677L95.2562 17.3494C95.1982 17.6099 95.4572 17.8477 95.7942 17.8477H96.5116L96.6757 18.8187C96.6757 20.5257 98.7696 19.1946 98.8706 17.8477H99.3799L99.1684 19.1824C99.1684 19.6896 99.6999 19.1824 100.351 19.1824C101.003 19.1824 101.756 19.1442 101.756 18.6369V10.5215C101.756 10.5215 101.563 10.5427 101.27 10.6367L99.1684 11.2224Z" fill="#FF9045"/>
</svg>
